<svg width="120" height="120" viewBox="0 0 120 120" fill="none" xmlns="http://www.w3.org/2000/svg">
  <defs>
    <linearGradient id="logoGradient" x1="0%" y1="0%" x2="100%" y2="100%">
      <stop offset="0%" style="stop-color:#667eea;stop-opacity:1" />
      <stop offset="100%" style="stop-color:#764ba2;stop-opacity:1" />
    </linearGradient>
    <linearGradient id="logoGradientLight" x1="0%" y1="0%" x2="100%" y2="100%">
      <stop offset="0%" style="stop-color:#8b9aff;stop-opacity:1" />
      <stop offset="100%" style="stop-color:#9d6bc7;stop-opacity:1" />
    </linearGradient>
    <filter id="glow">
      <feGaussianBlur stdDeviation="3" result="coloredBlur"/>
      <feMerge>
        <feMergeNode in="coloredBlur"/>
        <feMergeNode in="SourceGraphic"/>
      </feMerge>
    </filter>
  </defs>
  
  <!-- Background Circle -->
  <circle cx="60" cy="60" r="58" fill="url(#logoGradient)" opacity="0.1"/>
  
  <!-- Main CRM Icon - Connected Nodes representing Customer Relationships -->
  <!-- Central Hub -->
  <circle cx="60" cy="60" r="18" fill="url(#logoGradient)" filter="url(#glow)"/>
  
  <!-- Connection Lines -->
  <line x1="60" y1="42" x2="60" y2="30" stroke="url(#logoGradient)" stroke-width="2.5" stroke-linecap="round" opacity="0.6"/>
  <line x1="60" y1="78" x2="60" y2="90" stroke="url(#logoGradient)" stroke-width="2.5" stroke-linecap="round" opacity="0.6"/>
  <line x1="42" y1="60" x2="30" y2="60" stroke="url(#logoGradient)" stroke-width="2.5" stroke-linecap="round" opacity="0.6"/>
  <line x1="78" y1="60" x2="90" y2="60" stroke="url(#logoGradient)" stroke-width="2.5" stroke-linecap="round" opacity="0.6"/>
  
  <!-- Diagonal Connections -->
  <line x1="50" y1="50" x2="40" y2="40" stroke="url(#logoGradient)" stroke-width="2" stroke-linecap="round" opacity="0.5"/>
  <line x1="70" y1="50" x2="80" y2="40" stroke="url(#logoGradient)" stroke-width="2" stroke-linecap="round" opacity="0.5"/>
  <line x1="50" y1="70" x2="40" y2="80" stroke="url(#logoGradient)" stroke-width="2" stroke-linecap="round" opacity="0.5"/>
  <line x1="70" y1="70" x2="80" y2="80" stroke="url(#logoGradient)" stroke-width="2" stroke-linecap="round" opacity="0.5"/>
  
  <!-- Outer Nodes (Customers/Businesses) -->
  <circle cx="60" cy="30" r="6" fill="url(#logoGradientLight)"/>
  <circle cx="60" cy="90" r="6" fill="url(#logoGradientLight)"/>
  <circle cx="30" cy="60" r="6" fill="url(#logoGradientLight)"/>
  <circle cx="90" cy="60" r="6" fill="url(#logoGradientLight)"/>
  <circle cx="40" cy="40" r="5" fill="url(#logoGradientLight)" opacity="0.8"/>
  <circle cx="80" cy="40" r="5" fill="url(#logoGradientLight)" opacity="0.8"/>
  <circle cx="40" cy="80" r="5" fill="url(#logoGradientLight)" opacity="0.8"/>
  <circle cx="80" cy="80" r="5" fill="url(#logoGradientLight)" opacity="0.8"/>
  
  <!-- Inner Accent - Data/Chart representation -->
  <path d="M 52 52 L 60 48 L 68 52 L 68 60 L 60 64 L 52 60 Z" fill="white" opacity="0.3"/>
  
  <!-- Sparkle/Star effect for premium feel -->
  <circle cx="75" cy="35" r="2" fill="white" opacity="0.8"/>
  <circle cx="35" cy="75" r="2" fill="white" opacity="0.8"/>
  <circle cx="85" cy="70" r="1.5" fill="white" opacity="0.6"/>
  <circle cx="25" cy="50" r="1.5" fill="white" opacity="0.6"/>
</svg>

